# xmcd CD database file
#
# Track frame offsets:
#	150
#	20095
#	38055
#	57450
#	85430
#	105373
#	129793
#	145945
#	162105
#	184163
#	199908
#	222068
#	239975
#	263763
#
# Disc length: 3955 seconds
#
# Revision: 1
# Processed by: cddbd v1.5.1PL0 Copyright (c) Steve Scherf et al.
# Submitted via: CDex 1.51
#
DISCID=c80f710e
DTITLE=黒色エレジー - Esoderic Mania
DYEAR=1900
DGENRE=
TTITLE0=Sun Stroke
TTITLE1=邪宗門
TTITLE2=花粉犯罪
TTITLE3=夢の成る頃
TTITLE4=安息日
TTITLE5=鵺の想い
TTITLE6=太陽眼
TTITLE7=訪れざる宴
TTITLE8=満月の夜
TTITLE9=Warrior
TTITLE10=Goddess
TTITLE11=揺籃の刻
TTITLE12=神々のレース
TTITLE13=虹と蛇のブルース
EXTD=
EXTT0=
EXTT1=
EXTT2=
EXTT3=
EXTT4=
EXTT5=
EXTT6=
EXTT7=
EXTT8=
EXTT9=
EXTT10=
EXTT11=
EXTT12=
EXTT13=
PLAYORDER=
